<svg xmlns="http://www.w3.org/2000/svg" width="320" height="320" viewBox="0 0 320 320" fill="none">
  <defs>
    <g id="rosette" stroke="#ffffff" stroke-width="1.5" stroke-linecap="round" stroke-linejoin="round">
      <g>
        <path id="outer-petal" d="M0 -148 L30 -124 L40 -80 L18 -44 L0 -30 L-18 -44 L-40 -80 L-30 -124 Z"/>
        <use href="#outer-petal" transform="rotate(30)"/>
        <use href="#outer-petal" transform="rotate(60)"/>
        <use href="#outer-petal" transform="rotate(90)"/>
        <use href="#outer-petal" transform="rotate(120)"/>
        <use href="#outer-petal" transform="rotate(150)"/>
        <use href="#outer-petal" transform="rotate(180)"/>
        <use href="#outer-petal" transform="rotate(210)"/>
        <use href="#outer-petal" transform="rotate(240)"/>
        <use href="#outer-petal" transform="rotate(270)"/>
        <use href="#outer-petal" transform="rotate(300)"/>
        <use href="#outer-petal" transform="rotate(330)"/>
      </g>

      <g>
        <path id="middle-petal" d="M0 -92 L20 -67 L18 -34 L0 -14 L-18 -34 L-20 -67 Z"/>
        <use href="#middle-petal" transform="rotate(30)"/>
        <use href="#middle-petal" transform="rotate(60)"/>
        <use href="#middle-petal" transform="rotate(90)"/>
        <use href="#middle-petal" transform="rotate(120)"/>
        <use href="#middle-petal" transform="rotate(150)"/>
        <use href="#middle-petal" transform="rotate(180)"/>
        <use href="#middle-petal" transform="rotate(210)"/>
        <use href="#middle-petal" transform="rotate(240)"/>
        <use href="#middle-petal" transform="rotate(270)"/>
        <use href="#middle-petal" transform="rotate(300)"/>
        <use href="#middle-petal" transform="rotate(330)"/>
      </g>

      <g>
        <path id="inner-petal" d="M0 -58 L12 -37 L10 -18 L0 -4 L-10 -18 L-12 -37 Z"/>
        <use href="#inner-petal" transform="rotate(30)"/>
        <use href="#inner-petal" transform="rotate(60)"/>
        <use href="#inner-petal" transform="rotate(90)"/>
        <use href="#inner-petal" transform="rotate(120)"/>
        <use href="#inner-petal" transform="rotate(150)"/>
        <use href="#inner-petal" transform="rotate(180)"/>
        <use href="#inner-petal" transform="rotate(210)"/>
        <use href="#inner-petal" transform="rotate(240)"/>
        <use href="#inner-petal" transform="rotate(270)"/>
        <use href="#inner-petal" transform="rotate(300)"/>
        <use href="#inner-petal" transform="rotate(330)"/>
      </g>

      <path d="M0 -28 L7 -10 L24 -14 L12 0 L24 14 L7 10 L0 28 L-7 10 L-24 14 L-12 0 L-24 -14 L-7 -10 Z"/>
      <circle r="6"/>
    </g>
  </defs>

  <use href="#rosette" transform="translate(160 160)"/>
  <use href="#rosette" transform="translate(0 0)"/>
  <use href="#rosette" transform="translate(320 0)"/>
  <use href="#rosette" transform="translate(0 320)"/>
  <use href="#rosette" transform="translate(320 320)"/>
</svg>
